# xmcd
#
# Track frame offsets:
#       150
#       27826
#       43689
#       65148
#       86528
#       109101
#       127427
#       146662
#       162149
#       182846
#       197021
#       208051
#       225040
#       241082
#       257507
#       270371
#       288790
#       312004
#
# Disc length: 4396 seconds
#
#
# Revision: 0
# Processed by: cddbd v1.5PL3 Copyright (c) Steve Scherf et al.
# Submitted via: Visual Ripper tool of Visual MP3 v4.18
#
DISCID=f7112a12
DTITLE=Gal Costa - Serie Herencia
DYEAR=1900
DGENRE=Blues
TTITLE0=Um Dia de Domingo
TTITLE1=Ave Nossa
TTITLE2=Vaca Profana
TTITLE3=Ultimo Blues
TTITLE4=Da Volta Ao Comeco
TTITLE5=Todo Amor Que Houver Nessa Vida
TTITLE6=Nada Mais
TTITLE7=Romance
TTITLE8=Tropicalia
TTITLE9=Chuva De Prata
TTITLE10=Onde Esta O Dinheiro
TTITLE11=Musa De Qualquer Estacao
TTITLE12=Quem Preguntou Por Mi
TTITLE13=A Verdeira Baiana
TTITLE14=Brazil
TTITLE15=Bahia, Minha Preta
TTITLE16=Bumbo Da Mangueira
TTITLE17=Lavagem Do Bonfim
EXTD=
EXTT0=
EXTT1=
EXTT2=
EXTT3=
EXTT4=
EXTT5=
EXTT6=
EXTT7=
EXTT8=
EXTT9=
EXTT10=
EXTT11=
EXTT12=
EXTT13=
EXTT14=
EXTT15=
EXTT16=
EXTT17=
PLAYORDER=
